<svg width="145" height="63" viewBox="0 0 145 63" fill="none" xmlns="http://www.w3.org/2000/svg">
<g filter="url(#filter0_d)">
<path d="M75.0352 9.19531L71.4316 18.002C70.1074 17.3691 68.8418 16.8887 67.6348 16.5605C66.4395 16.2207 65.3848 15.9746 64.4707 15.8223C63.3926 15.6465 62.3906 15.5586 61.4648 15.5586C60.0938 15.582 58.9336 15.6875 57.9844 15.875C57.0352 16.0508 56.2734 16.2969 55.6992 16.6133C55.1367 16.918 54.7441 17.2695 54.5215 17.668C54.3105 18.0664 54.2578 18.4941 54.3633 18.9512C54.4805 19.4668 54.7559 19.877 55.1895 20.1816C55.623 20.4746 56.2031 20.6973 56.9297 20.8496C57.6562 20.9902 58.5176 21.084 59.5137 21.1309C60.5215 21.1777 61.6523 21.207 62.9062 21.2188C63.5625 21.2305 64.2891 21.2539 65.0859 21.2891C65.8945 21.3242 66.709 21.418 67.5293 21.5703C68.3613 21.7109 69.1641 21.9277 69.9375 22.2207C70.7109 22.5137 71.3965 22.9238 71.9941 23.4512C72.6035 23.9785 73.0898 24.6406 73.4531 25.4375C73.8164 26.2344 73.998 27.2129 73.998 28.373C73.998 29.4277 73.8457 30.3418 73.541 31.1152C73.2363 31.8887 72.8262 32.5508 72.3105 33.1016C71.7949 33.6406 71.1855 34.0859 70.4824 34.4375C69.791 34.7773 69.0527 35.0469 68.2676 35.2461C67.4824 35.4453 66.6738 35.5801 65.8418 35.6504C65.0098 35.7207 64.2012 35.7559 63.416 35.7559C62.4199 35.7559 61.4648 35.709 60.5508 35.6152C59.6484 35.5332 58.7637 35.4102 57.8965 35.2461C57.0293 35.082 56.1621 34.8887 55.2949 34.666C54.4395 34.4316 53.5664 34.1738 52.6758 33.8926L51.6387 36.9863L49.1602 36.2656L51.4277 27.582C52.4824 28.0391 53.5254 28.4492 54.5566 28.8125C55.5996 29.1758 56.6426 29.4863 57.6855 29.7441C58.7402 29.9902 59.8008 30.1777 60.8672 30.3066C61.9336 30.4355 63.0234 30.5 64.1367 30.5C65.2266 30.5 66.1582 30.4355 66.9316 30.3066C67.7051 30.1777 68.332 29.9844 68.8125 29.7266C69.3047 29.4688 69.6621 29.1465 69.8848 28.7598C70.1074 28.373 70.2188 27.9219 70.2188 27.4062C70.2188 26.7617 70.0547 26.252 69.7266 25.877C69.3984 25.502 68.9004 25.2148 68.2324 25.0156C67.5762 24.8164 66.75 24.6816 65.7539 24.6113C64.7695 24.541 63.6152 24.4883 62.291 24.4531C61.3652 24.4297 60.3926 24.3945 59.373 24.3477C58.3535 24.3008 57.3516 24.2012 56.3672 24.0488C55.3828 23.8965 54.4453 23.6738 53.5547 23.3809C52.6641 23.0879 51.8789 22.6836 51.1992 22.168C50.5312 21.6523 49.998 21.0078 49.5996 20.2344C49.2012 19.4609 49.002 18.5176 49.002 17.4043C49.002 16.4082 49.1602 15.5117 49.4766 14.7148C49.8047 13.9062 50.2617 13.1973 50.8477 12.5879C51.4336 11.9668 52.125 11.4395 52.9219 11.0059C53.7305 10.5605 54.6152 10.2031 55.5762 9.93359C56.5488 9.65234 57.5742 9.45313 58.6523 9.33594C59.7422 9.21875 60.8613 9.17188 62.0098 9.19531C63.1816 9.25391 64.3418 9.37109 65.4902 9.54688C65.9707 9.61719 66.4746 9.71094 67.002 9.82812C67.5293 9.93359 68.0508 10.0684 68.5664 10.2324C69.082 10.3848 69.5801 10.5664 70.0605 10.7773C70.541 10.9766 70.9863 11.2051 71.3965 11.4629L72.1523 8.03516L75.0352 9.19531ZM94.3184 24.6641L86.1797 24.0137L85.8633 28.2676H99.75L100.436 24.8398H103.178L102.562 33.998L77.0391 34.9648V28.2676H82.2598L81.5039 16.4199L77.0391 16.7188V10.0918L103.178 10.6367V20.7793L100.436 21.3242L99.8906 15.2422L86.7949 16.1035L86.3906 21.2188L94.3184 20.7441V24.6641ZM110.824 14.6973C109.98 14.9316 109.189 15.1719 108.451 15.418C107.713 15.6641 107.062 15.9043 106.5 16.1387L105.533 11.1641C106.787 10.7773 108.006 10.4375 109.189 10.1445C110.385 9.85156 111.527 9.59961 112.617 9.38867C113.707 9.17773 114.738 9.00195 115.711 8.86133C116.684 8.7207 117.586 8.60352 118.418 8.50977C120.352 8.29883 122.139 8.1875 123.779 8.17578C125.502 8.19922 127.008 8.36914 128.297 8.68555C129.586 9.00195 130.658 9.44727 131.514 10.0215C132.381 10.5957 133.031 11.2871 133.465 12.0957C133.898 12.9043 134.115 13.8066 134.115 14.8027C134.115 16.1035 133.811 17.2637 133.201 18.2832C132.604 19.3027 131.807 20.2051 130.811 20.9902C129.814 21.7637 128.672 22.4316 127.383 22.9941C126.105 23.5566 124.787 24.0312 123.428 24.418C122.068 24.8047 120.721 25.1152 119.385 25.3496C118.049 25.5723 116.836 25.7422 115.746 25.8594L115.781 30.6758L121.723 30.7109V34.7539L106.816 35.6855L106.711 30.6055L111.967 30.6406L110.824 14.6973ZM122.777 12.4297C122.379 12.4297 121.916 12.459 121.389 12.5176C120.873 12.5645 120.311 12.6348 119.701 12.7285C119.092 12.8105 118.447 12.916 117.768 13.0449C117.088 13.1738 116.391 13.3145 115.676 13.4668L115.746 22.9766C116.59 22.8008 117.48 22.584 118.418 22.3262C119.367 22.0566 120.299 21.7461 121.213 21.3945C122.139 21.043 123.018 20.6504 123.85 20.2168C124.682 19.7715 125.402 19.2852 126.012 18.7578C126.621 18.2305 127.09 17.668 127.418 17.0703C127.758 16.4609 127.887 15.8164 127.805 15.1367C127.746 14.6445 127.582 14.2285 127.312 13.8887C127.043 13.5371 126.686 13.2559 126.24 13.0449C125.807 12.8223 125.291 12.6641 124.693 12.5703C124.107 12.4766 123.469 12.4297 122.777 12.4297Z" fill="#F9A03F"/>
</g>
<path fill-rule="evenodd" clip-rule="evenodd" d="M30.4687 0C36.25 0 40 3.75 40 9.53127V30.4687C40 36.25 36.25 40 30.4687 40H9.53127C3.75 40 0 36.25 0 30.4687V9.53127C0 3.75 3.75 0 9.53127 0H30.4687Z" fill="url(#paint0_linear)"/>
<mask id="mask0" mask-type="alpha" maskUnits="userSpaceOnUse" x="0" y="0" width="40" height="40">
<path fill-rule="evenodd" clip-rule="evenodd" d="M30.4687 0C36.25 0 40 3.75 40 9.53127V30.4687C40 36.25 36.25 40 30.4687 40H9.53127C3.75 40 0 36.25 0 30.4687V9.53127C0 3.75 3.75 0 9.53127 0H30.4687Z" fill="white"/>
</mask>
<g mask="url(#mask0)">
<g filter="url(#filter1_i)">
<path fill-rule="evenodd" clip-rule="evenodd" d="M20 31.3333L32.1948 41.0117L42.4387 40.976L42.7143 -1.59404L26.6756 -1.53808L26.5183 16.9649L20 31.3333Z" fill="black" fill-opacity="0.148834"/>
</g>
<path d="M17.6667 -0.333344H13.3333V16.7728H17.6667V-0.333344Z" fill="#FFDB5D"/>
<path d="M22.6667 -0.333344H17.3333V17.6667H22.6667V-0.333344Z" fill="#FFB908"/>
<path fill-rule="evenodd" clip-rule="evenodd" d="M22.3333 -0.333344H26.6667L26.5373 16.9612C26.5373 16.9612 25.4306 17.796 24.8907 17.8866C24.0292 18.0312 22.3333 17.6667 22.3333 17.6667V-0.333344Z" fill="#DC880D"/>
<mask id="mask1" mask-type="alpha" maskUnits="userSpaceOnUse" x="12" y="15" width="17" height="18">
<path fill-rule="evenodd" clip-rule="evenodd" d="M12.2311 18.0744C12.2311 18.0744 15.2346 13.4597 19.1396 15.6719C23.0445 17.8842 24.5252 17.9297 27.7298 16.4586C30.9345 14.9875 20.0135 32.7504 20.0135 32.7504L12.2311 18.0744Z" fill="white"/>
</mask>
<g mask="url(#mask1)">
<path fill-rule="evenodd" clip-rule="evenodd" d="M13.1582 16.4039L19.6723 12.9787L26.5814 16.8552L19.9888 31.3278L13.1582 16.4039Z" fill="url(#paint1_linear)"/>
<mask id="mask2" mask-type="alpha" maskUnits="userSpaceOnUse" x="13" y="12" width="14" height="20">
<path fill-rule="evenodd" clip-rule="evenodd" d="M13.1582 16.4039L19.6723 12.9787L26.5814 16.8552L19.9888 31.3278L13.1582 16.4039Z" fill="white"/>
</mask>
<g mask="url(#mask2)">
<path d="M25 26H15.6667V32H25V26Z" fill="#343434"/>
<path fill-rule="evenodd" clip-rule="evenodd" d="M17.168 14.024L20.1826 32.7488L27.7158 16.4361L17.168 14.024Z" fill="url(#paint2_linear)"/>
<mask id="mask3" mask-type="alpha" maskUnits="userSpaceOnUse" x="17" y="14" width="11" height="19">
<path fill-rule="evenodd" clip-rule="evenodd" d="M17.168 14.024L20.1826 32.7488L27.7158 16.4361L17.168 14.024Z" fill="white"/>
</mask>
<g mask="url(#mask3)">
<path d="M25 26H15.6667V32H25V26Z" fill="#202020"/>
</g>
</g>
</g>
</g>
<defs>
<filter id="filter0_d" x="45.002" y="8.03516" width="93.1133" height="36.9512" filterUnits="userSpaceOnUse" color-interpolation-filters="sRGB">
<feFlood flood-opacity="0" result="BackgroundImageFix"/>
<feColorMatrix in="SourceAlpha" type="matrix" values="0 0 0 0 0 0 0 0 0 0 0 0 0 0 0 0 0 0 127 0"/>
<feOffset dy="4"/>
<feGaussianBlur stdDeviation="2"/>
<feColorMatrix type="matrix" values="0 0 0 0 0 0 0 0 0 0 0 0 0 0 0 0 0 0 0.25 0"/>
<feBlend mode="normal" in2="BackgroundImageFix" result="effect1_dropShadow"/>
<feBlend mode="normal" in="SourceGraphic" in2="effect1_dropShadow" result="shape"/>
</filter>
<filter id="filter1_i" x="20" y="-1.59404" width="23.2143" height="43.6057" filterUnits="userSpaceOnUse" color-interpolation-filters="sRGB">
<feFlood flood-opacity="0" result="BackgroundImageFix"/>
<feBlend mode="normal" in="SourceGraphic" in2="BackgroundImageFix" result="shape"/>
<feColorMatrix in="SourceAlpha" type="matrix" values="0 0 0 0 0 0 0 0 0 0 0 0 0 0 0 0 0 0 127 0" result="hardAlpha"/>
<feOffset dx="0.5" dy="1.5"/>
<feGaussianBlur stdDeviation="0.5"/>
<feComposite in2="hardAlpha" operator="arithmetic" k2="-1" k3="1"/>
<feColorMatrix type="matrix" values="0 0 0 0 0 0 0 0 0 0 0 0 0 0 0 0 0 0 0.1 0"/>
<feBlend mode="normal" in2="shape" result="effect1_innerShadow"/>
</filter>
<linearGradient id="paint0_linear" x1="0" y1="0" x2="0" y2="40" gradientUnits="userSpaceOnUse">
<stop stop-color="#2EA3DC"/>
<stop offset="1" stop-color="#1383BB"/>
</linearGradient>
<linearGradient id="paint1_linear" x1="15.0667" y1="23.3744" x2="19.3836" y2="23.3744" gradientUnits="userSpaceOnUse">
<stop stop-color="#FBDEB5"/>
<stop offset="1" stop-color="#FEE0B9"/>
</linearGradient>
<linearGradient id="paint2_linear" x1="18.1808" y1="27.0392" x2="24.3166" y2="27.0392" gradientUnits="userSpaceOnUse">
<stop stop-color="#EAC99D"/>
<stop offset="1" stop-color="#D1AD7B"/>
</linearGradient>
</defs>
</svg>
